<svg width="24" height="24" viewBox="0 0 24 24" fill="none" xmlns="http://www.w3.org/2000/svg">
<path d="M6.00014 17H18.0001M17.0001 21C17.2654 21 17.5197 20.8946 17.7073 20.7071C17.8948 20.5196 18.0001 20.2652 18.0001 20V14.65C18.0001 14.193 18.3161 13.806 18.7271 13.609C19.5781 13.203 20.2583 12.5095 20.6478 11.6509C21.0372 10.7922 21.1108 9.8236 20.8556 8.91596C20.6003 8.00831 20.0327 7.22 19.2528 6.69014C18.473 6.16028 17.531 5.92294 16.5931 6.02C16.2069 5.12221 15.566 4.35729 14.7497 3.81984C13.9334 3.28238 12.9775 2.99594 12.0001 2.99594C11.0228 2.99594 10.0669 3.28238 9.25057 3.81984C8.43427 4.35729 7.79338 5.12221 7.40714 6.02C6.46973 5.92362 5.52838 6.1613 4.74908 6.69114C3.96977 7.22097 3.40255 8.00893 3.14743 8.9161C2.8923 9.82327 2.96565 10.7914 3.35455 11.6497C3.74344 12.5081 4.42291 13.2016 5.27314 13.608C5.68414 13.806 6.00014 14.193 6.00014 14.649V20C6.00014 20.2652 6.1055 20.5196 6.29304 20.7071C6.48057 20.8946 6.73493 21 7.00014 21H17.0001Z" stroke="currentColor" stroke-width="2" stroke-linecap="round" stroke-linejoin="round"/>
</svg>
